<svg xmlns="http://www.w3.org/2000/svg" xmlns:xlink="http://www.w3.org/1999/xlink" width="500" zoomAndPan="magnify" viewBox="0 0 375 374.999991" height="500" preserveAspectRatio="xMidYMid meet" version="1.0"><defs><g/><clipPath id="0ef4aa0602"><path d="M 5.140625 72 L 66 72 L 66 260.75 L 5.140625 260.75 Z M 5.140625 72 " clip-rule="nonzero"/></clipPath><clipPath id="03959ffa91"><path d="M 309.386719 72.167969 L 369.636719 72.167969 L 369.636719 260.746094 L 309.386719 260.746094 Z M 309.386719 72.167969 " clip-rule="nonzero"/></clipPath></defs><path fill="#ff6824" d="M 129.417969 134.675781 C 124.949219 134.675781 120.78125 135.523438 116.917969 137.214844 C 113.050781 138.90625 109.699219 141.191406 106.863281 144.0625 C 104.023438 146.933594 101.773438 150.304688 100.117188 154.175781 C 98.453125 158.042969 97.625 162.15625 97.625 166.507812 C 97.625 170.863281 98.453125 174.976562 100.117188 178.84375 C 101.773438 182.714844 104.023438 186.085938 106.863281 188.957031 C 109.699219 191.828125 113.050781 194.113281 116.917969 195.804688 C 120.78125 197.5 124.949219 198.34375 129.417969 198.34375 C 133.828125 198.34375 137.960938 197.5 141.828125 195.804688 C 145.691406 194.113281 149.058594 191.8125 151.929688 188.910156 C 154.796875 186.007812 157.058594 182.640625 158.722656 178.800781 C 160.378906 174.960938 161.210938 170.863281 161.210938 166.507812 C 161.210938 162.15625 160.378906 158.0625 158.722656 154.222656 C 157.058594 150.382812 154.796875 147.011719 151.929688 144.109375 C 149.058594 141.207031 145.691406 138.90625 141.828125 137.214844 C 137.960938 135.523438 133.828125 134.675781 129.417969 134.675781 Z M 180.144531 166.507812 C 180.144531 180.660156 175.191406 192.628906 165.289062 202.425781 C 155.261719 212.34375 143.304688 217.300781 129.417969 217.300781 C 115.40625 217.300781 103.449219 212.34375 93.546875 202.425781 C 83.644531 192.511719 78.691406 180.535156 78.691406 166.507812 C 78.691406 152.484375 83.644531 140.511719 93.546875 130.59375 C 103.449219 120.679688 115.40625 115.71875 129.417969 115.71875 C 143.304688 115.71875 155.261719 120.679688 165.289062 130.59375 C 170.238281 135.550781 173.9375 141.023438 176.382812 147.011719 C 178.828125 152.996094 180.082031 159.496094 180.144531 166.507812 " fill-opacity="1" fill-rule="nonzero"/><path fill="#ff6824" d="M 245.359375 134.675781 C 240.890625 134.675781 236.722656 135.523438 232.859375 137.214844 C 228.996094 138.90625 225.644531 141.191406 222.804688 144.0625 C 219.964844 146.933594 217.71875 150.304688 216.058594 154.175781 C 214.394531 158.042969 213.566406 162.15625 213.566406 166.507812 C 213.566406 170.863281 214.394531 174.976562 216.058594 178.84375 C 217.71875 182.714844 219.964844 186.085938 222.804688 188.957031 C 225.644531 191.828125 228.996094 194.113281 232.859375 195.804688 C 236.722656 197.5 240.890625 198.34375 245.359375 198.34375 C 249.765625 198.34375 253.902344 197.5 257.769531 195.804688 C 261.632812 194.113281 265 191.8125 267.871094 188.910156 C 270.738281 186.007812 273.003906 182.640625 274.660156 178.800781 C 276.320312 174.960938 277.15625 170.863281 277.15625 166.507812 C 277.15625 162.15625 276.320312 158.0625 274.660156 154.222656 C 273.003906 150.382812 270.738281 147.011719 267.871094 144.109375 C 265 141.207031 261.632812 138.90625 257.769531 137.214844 C 253.902344 135.523438 249.765625 134.675781 245.359375 134.675781 Z M 296.085938 166.507812 C 296.085938 180.660156 291.132812 192.628906 281.230469 202.425781 C 271.207031 212.34375 259.25 217.300781 245.359375 217.300781 C 231.347656 217.300781 219.390625 212.34375 209.492188 202.425781 C 199.585938 192.511719 194.636719 180.535156 194.636719 166.507812 C 194.636719 152.484375 199.585938 140.511719 209.492188 130.59375 C 219.390625 120.679688 231.347656 115.71875 245.359375 115.71875 C 259.25 115.71875 271.207031 120.679688 281.230469 130.59375 C 286.179688 135.550781 289.878906 141.023438 292.324219 147.011719 C 294.769531 152.996094 296.023438 159.496094 296.085938 166.507812 " fill-opacity="1" fill-rule="nonzero"/><g clip-path="url(#0ef4aa0602)"><path fill="#383838" d="M 55.867188 72.277344 C 58.585938 72.277344 60.832031 73.199219 62.613281 75.042969 C 64.394531 76.886719 65.289062 79.136719 65.289062 81.796875 C 65.289062 84.519531 64.394531 86.773438 62.613281 88.554688 C 60.832031 90.339844 58.585938 91.230469 55.867188 91.230469 C 48.378906 91.230469 44.636719 94.980469 44.636719 102.476562 L 44.636719 145.832031 C 44.636719 154.539062 42.640625 161.429688 38.65625 166.507812 C 42.640625 171.589844 44.636719 178.480469 44.636719 187.1875 L 44.636719 230.542969 C 44.636719 238.039062 48.378906 241.789062 55.867188 241.789062 C 58.585938 241.789062 60.832031 242.679688 62.613281 244.464844 C 64.394531 246.246094 65.289062 248.5 65.289062 251.222656 C 65.289062 253.941406 64.394531 256.210938 62.613281 258.023438 C 60.832031 259.835938 58.585938 260.746094 55.867188 260.746094 C 35.757812 260.746094 25.703125 250.675781 25.703125 230.542969 L 25.703125 187.1875 C 25.703125 179.691406 21.988281 175.941406 14.5625 175.941406 C 11.847656 175.941406 9.59375 175.050781 7.8125 173.265625 C 6.03125 171.484375 5.140625 169.230469 5.140625 166.507812 C 5.140625 163.789062 6.03125 161.535156 7.8125 159.753906 C 9.59375 157.972656 11.847656 157.078125 14.5625 157.078125 C 21.988281 157.078125 25.703125 153.328125 25.703125 145.832031 L 25.703125 102.476562 C 25.703125 82.34375 35.757812 72.277344 55.867188 72.277344 " fill-opacity="1" fill-rule="nonzero"/></g><g clip-path="url(#03959ffa91)"><path fill="#383838" d="M 349.074219 102.476562 L 349.074219 145.832031 C 349.074219 153.328125 352.789062 157.078125 360.214844 157.078125 C 362.933594 157.078125 365.183594 157.972656 366.960938 159.753906 C 368.746094 161.535156 369.636719 163.789062 369.636719 166.507812 C 369.636719 169.230469 368.746094 171.484375 366.960938 173.265625 C 365.183594 175.050781 362.933594 175.941406 360.214844 175.941406 C 352.789062 175.941406 349.074219 179.691406 349.074219 187.1875 L 349.074219 230.542969 C 349.074219 250.675781 339.019531 260.746094 318.910156 260.746094 C 316.191406 260.746094 313.945312 259.835938 312.160156 258.023438 C 310.382812 256.210938 309.492188 253.941406 309.492188 251.222656 C 309.492188 248.5 310.382812 246.246094 312.160156 244.464844 C 313.945312 242.679688 316.191406 241.789062 318.910156 241.789062 C 326.402344 241.789062 330.144531 238.039062 330.144531 230.542969 L 330.144531 187.1875 C 330.144531 178.480469 332.136719 171.589844 336.121094 166.507812 C 332.136719 161.429688 330.144531 154.539062 330.144531 145.832031 L 330.144531 102.476562 C 330.144531 94.980469 326.402344 91.230469 318.910156 91.230469 C 316.191406 91.230469 313.945312 90.339844 312.160156 88.554688 C 310.382812 86.773438 309.492188 84.519531 309.492188 81.796875 C 309.492188 79.136719 310.382812 76.886719 312.160156 75.042969 C 313.945312 73.199219 316.191406 72.277344 318.910156 72.277344 C 339.019531 72.277344 349.074219 82.34375 349.074219 102.476562 " fill-opacity="1" fill-rule="nonzero"/></g><path fill="#383838" d="M 215.742188 79.796875 C 215.742188 81.367188 215.4375 82.832031 214.832031 84.195312 C 214.230469 85.554688 213.429688 86.75 212.433594 87.777344 C 211.4375 88.804688 210.242188 89.605469 208.855469 90.179688 C 207.464844 90.757812 206.019531 91.042969 204.507812 91.042969 C 201.730469 91.042969 199.347656 90.074219 197.351562 88.140625 C 195.359375 86.207031 193.730469 83.832031 192.460938 81.019531 C 191.195312 78.207031 190.269531 75.304688 189.699219 72.3125 C 189.125 69.320312 188.839844 66.523438 188.839844 63.921875 C 188.839844 53.222656 193.398438 42.398438 202.515625 31.453125 C 204.144531 29.820312 205.988281 29.003906 208.042969 29.003906 C 210.152344 29.003906 211.964844 29.761719 213.476562 31.273438 C 214.984375 32.785156 215.742188 34.597656 215.742188 36.714844 C 215.742188 37.742188 215.527344 38.800781 215.109375 39.886719 C 212.386719 46.542969 211.03125 52.859375 211.03125 58.847656 C 211.03125 64.53125 212.265625 70.03125 214.742188 75.351562 C 215.410156 76.863281 215.742188 78.34375 215.742188 79.796875 Z M 185.941406 79.796875 C 185.941406 81.367188 185.636719 82.832031 185.035156 84.195312 C 184.429688 85.554688 183.628906 86.75 182.632812 87.777344 C 181.636719 88.804688 180.445312 89.605469 179.054688 90.179688 C 177.667969 90.757812 176.21875 91.042969 174.707031 91.042969 C 171.929688 91.042969 169.546875 90.074219 167.550781 88.140625 C 165.558594 86.207031 163.929688 83.832031 162.660156 81.019531 C 161.390625 78.207031 160.472656 75.304688 159.898438 72.3125 C 159.324219 69.320312 159.039062 66.523438 159.039062 63.921875 C 159.039062 53.222656 163.59375 42.398438 172.714844 31.453125 C 174.34375 29.820312 176.1875 29.003906 178.238281 29.003906 C 180.351562 29.003906 182.164062 29.761719 183.675781 31.273438 C 185.183594 32.785156 185.941406 34.597656 185.941406 36.714844 C 185.941406 37.742188 185.726562 38.800781 185.304688 39.886719 C 182.589844 46.542969 181.230469 52.859375 181.230469 58.847656 C 181.230469 64.53125 182.46875 70.03125 184.945312 75.351562 C 185.605469 76.863281 185.941406 78.34375 185.941406 79.796875 " fill-opacity="1" fill-rule="nonzero"/><g fill="#ff6824" fill-opacity="1"><g transform="translate(12.488892, 345.56567)"><g><path d="M 8.109375 0.234375 C 6.378906 0.078125 4.359375 0 2.046875 0 L -0.328125 0 L 12.796875 -36.765625 C 13.378906 -38.421875 13.671875 -39.382812 13.671875 -39.65625 C 13.671875 -39.925781 13.660156 -40.09375 13.640625 -40.15625 L 13.671875 -40.21875 C 14.972656 -40.15625 16.359375 -40.125 17.828125 -40.125 C 19.035156 -40.125 20.484375 -40.144531 22.171875 -40.1875 L 22.203125 -40.125 C 22.160156 -40.039062 22.140625 -39.929688 22.140625 -39.796875 C 22.140625 -39.410156 22.441406 -38.394531 23.046875 -36.75 L 36.4375 0.09375 C 36.039062 0.0703125 35.570312 0.0625 35.03125 0.0625 C 35.03125 0.0625 34.503906 0.0390625 33.453125 0 C 32.953125 0 32.5 0 32.09375 0 L 27.421875 0 L 24.578125 -8.6875 L 10.953125 -8.6875 Z M 22.234375 -15.921875 L 17.671875 -29.953125 L 13.25 -15.921875 Z M 22.234375 -15.921875 "/></g></g></g><g fill="#ff6824" fill-opacity="1"><g transform="translate(48.586359, 345.56567)"><g><path d="M 14.96875 0.75 C 11.707031 0.75 8.640625 0.488281 5.765625 -0.03125 L 5.765625 -40.390625 C 8.421875 -40.710938 11.5 -40.875 15 -40.875 C 18.507812 -40.875 21.6875 -40.394531 24.53125 -39.4375 C 27.382812 -38.488281 29.765625 -37.128906 31.671875 -35.359375 C 35.535156 -31.816406 37.46875 -26.859375 37.46875 -20.484375 C 37.46875 -13.347656 35.316406 -7.925781 31.015625 -4.21875 C 27.148438 -0.90625 21.800781 0.75 14.96875 0.75 Z M 13.609375 -6.609375 C 14.910156 -6.367188 16.210938 -6.25 17.515625 -6.25 C 18.828125 -6.25 20.238281 -6.503906 21.75 -7.015625 C 23.257812 -7.523438 24.566406 -8.320312 25.671875 -9.40625 C 28.046875 -11.695312 29.234375 -15.035156 29.234375 -19.421875 C 29.234375 -26.628906 26.609375 -31.054688 21.359375 -32.703125 C 19.628906 -33.242188 17.628906 -33.515625 15.359375 -33.515625 L 14.546875 -33.515625 C 14.242188 -33.515625 13.929688 -33.503906 13.609375 -33.484375 Z M 13.609375 -6.609375 "/></g></g></g><g fill="#ff6824" fill-opacity="1"><g transform="translate(89.71998, 345.56567)"><g><path d="M 13.328125 0.1875 C 12.367188 0.0625 10.507812 0 7.75 0 L 5.34375 0 L 5.34375 -40.25 C 6.625 -40.164062 8.039062 -40.125 9.59375 -40.125 C 11.144531 -40.125 12.238281 -40.203125 12.875 -40.359375 L 23.015625 -23.140625 L 32.765625 -40.359375 C 33.398438 -40.203125 34.625 -40.125 36.4375 -40.125 C 38.25 -40.125 39.800781 -40.164062 41.09375 -40.25 L 41.09375 0 L 38.671875 0 C 35.921875 0 34.0625 0.0625 33.09375 0.1875 L 33.09375 -26.84375 L 23.234375 -9.203125 L 13.328125 -25.4375 Z M 13.328125 0.1875 "/></g></g></g><g fill="#ff6824" fill-opacity="1"><g transform="translate(136.131009, 345.56567)"><g><path d="M 6.125 -40.25 C 8.132812 -40.164062 9.351562 -40.125 9.78125 -40.125 L 11.953125 -40.125 C 13.015625 -40.125 13.867188 -40.203125 14.515625 -40.359375 L 14.484375 0 L 6.125 0 Z M 6.125 -40.25 "/></g></g></g><g fill="#ff6824" fill-opacity="1"><g transform="translate(156.758133, 345.56567)"><g><path d="M 5.453125 0 C 5.578125 -0.6875 5.640625 -1.429688 5.640625 -2.234375 L 5.640625 -40.125 L 11.671875 -40.125 L 27.65625 -14.96875 L 27.65625 -38.0625 C 27.65625 -39.175781 27.554688 -39.863281 27.359375 -40.125 L 35.5 -40.125 C 35.40625 -39.320312 35.359375 -38.4375 35.359375 -37.46875 L 35.359375 0 L 29.078125 0 L 13.328125 -24.15625 L 13.328125 0 Z M 5.453125 0 "/></g></g></g><g fill="#383838" fill-opacity="1"><g transform="translate(197.741732, 345.56567)"><g><path d="M 4.609375 -40.328125 C 7.410156 -40.691406 10.28125 -40.875 13.21875 -40.875 C 18.6875 -40.875 22.84375 -39.59375 25.6875 -37.03125 C 28.53125 -34.46875 29.953125 -30.628906 29.953125 -25.515625 C 29.953125 -20.953125 28.394531 -17.34375 25.28125 -14.6875 C 22.363281 -12.195312 18.613281 -10.953125 14.03125 -10.953125 C 13.507812 -10.953125 12.9375 -10.984375 12.3125 -11.046875 L 12.3125 0 L 4.609375 0 Z M 14.125 -33.609375 C 13.519531 -33.609375 12.914062 -33.585938 12.3125 -33.546875 L 12.3125 -17.671875 C 12.945312 -17.597656 13.726562 -17.5625 14.65625 -17.5625 C 15.582031 -17.5625 16.546875 -17.753906 17.546875 -18.140625 C 18.554688 -18.535156 19.40625 -19.085938 20.09375 -19.796875 C 21.519531 -21.253906 22.234375 -23.179688 22.234375 -25.578125 C 22.234375 -30.929688 19.53125 -33.609375 14.125 -33.609375 Z M 14.125 -33.609375 "/></g></g></g><g fill="#383838" fill-opacity="1"><g transform="translate(228.682417, 345.56567)"><g><path d="M 8.109375 0.234375 C 6.378906 0.078125 4.359375 0 2.046875 0 L -0.328125 0 L 12.796875 -36.765625 C 13.378906 -38.421875 13.671875 -39.382812 13.671875 -39.65625 C 13.671875 -39.925781 13.660156 -40.09375 13.640625 -40.15625 L 13.671875 -40.21875 C 14.972656 -40.15625 16.359375 -40.125 17.828125 -40.125 C 19.035156 -40.125 20.484375 -40.144531 22.171875 -40.1875 L 22.203125 -40.125 C 22.160156 -40.039062 22.140625 -39.929688 22.140625 -39.796875 C 22.140625 -39.410156 22.441406 -38.394531 23.046875 -36.75 L 36.4375 0.09375 C 36.039062 0.0703125 35.570312 0.0625 35.03125 0.0625 C 35.03125 0.0625 34.503906 0.0390625 33.453125 0 C 32.953125 0 32.5 0 32.09375 0 L 27.421875 0 L 24.578125 -8.6875 L 10.953125 -8.6875 Z M 22.234375 -15.921875 L 17.671875 -29.953125 L 13.25 -15.921875 Z M 22.234375 -15.921875 "/></g></g></g><g fill="#383838" fill-opacity="1"><g transform="translate(264.779884, 345.56567)"><g><path d="M 5.453125 0 C 5.578125 -0.6875 5.640625 -1.429688 5.640625 -2.234375 L 5.640625 -40.125 L 11.671875 -40.125 L 27.65625 -14.96875 L 27.65625 -38.0625 C 27.65625 -39.175781 27.554688 -39.863281 27.359375 -40.125 L 35.5 -40.125 C 35.40625 -39.320312 35.359375 -38.4375 35.359375 -37.46875 L 35.359375 0 L 29.078125 0 L 13.328125 -24.15625 L 13.328125 0 Z M 5.453125 0 "/></g></g></g><g fill="#383838" fill-opacity="1"><g transform="translate(305.762722, 345.56567)"><g><path d="M 25.375 -7.234375 C 26.613281 -7.234375 27.476562 -7.359375 27.96875 -7.609375 L 28.078125 -7.578125 L 27.78125 0 L 5.1875 0 L 5.1875 -40.328125 C 5.726562 -40.285156 6.332031 -40.257812 7 -40.25 L 9.109375 -40.1875 C 10.515625 -40.144531 12.046875 -40.125 13.703125 -40.125 C 18.304688 -40.125 22.859375 -40.203125 27.359375 -40.359375 C 27.140625 -38.585938 27.03125 -36.226562 27.03125 -33.28125 C 27.03125 -32.957031 27.050781 -32.710938 27.09375 -32.546875 L 27.03125 -32.453125 C 25.976562 -32.753906 24.488281 -32.90625 22.5625 -32.90625 L 13.0625 -32.90625 L 13.0625 -25.21875 L 20.21875 -25.21875 C 22.425781 -25.21875 23.75 -25.28125 24.1875 -25.40625 L 24.28125 -17.953125 C 23.320312 -18.046875 22.078125 -18.09375 20.546875 -18.09375 L 13.0625 -18.09375 L 13.0625 -7.234375 Z M 25.375 -7.234375 "/></g></g></g><g fill="#383838" fill-opacity="1"><g transform="translate(336.703408, 345.56567)"><g><path d="M 11.078125 0 C 8.117188 0 6.15625 0.0625 5.1875 0.1875 L 5.1875 -40.296875 C 5.664062 -40.179688 6.664062 -40.125 8.1875 -40.125 C 9.707031 -40.125 11.472656 -40.164062 13.484375 -40.25 L 13.484375 -7.234375 L 19.734375 -7.234375 C 21.535156 -7.234375 22.984375 -7.296875 24.078125 -7.421875 C 23.929688 -2.710938 23.859375 -0.269531 23.859375 -0.09375 L 23.859375 0.21875 C 21.890625 0.0703125 18.582031 0 13.9375 0 Z M 11.078125 0 "/></g></g></g></svg>