<svg xmlns="http://www.w3.org/2000/svg" xmlns:xlink="http://www.w3.org/1999/xlink" width="500" zoomAndPan="magnify" viewBox="0 0 375 374.999991" height="500" preserveAspectRatio="xMidYMid meet" version="1.0"><defs><clipPath id="dc42c28e08"><path d="M 0 112 L 62 112 L 62 306.9375 L 0 306.9375 Z M 0 112 " clip-rule="nonzero"/></clipPath><clipPath id="a6150bdb73"><path d="M 313.007812 112.867188 L 374.992188 112.867188 L 374.992188 306.929688 L 313.007812 306.929688 Z M 313.007812 112.867188 " clip-rule="nonzero"/></clipPath><clipPath id="744a6560ca"><path d="M 158 68.4375 L 217 68.4375 L 217 133 L 158 133 Z M 158 68.4375 " clip-rule="nonzero"/></clipPath></defs><path fill="#383838" d="M 127.855469 177.191406 C 123.257812 177.191406 118.972656 178.0625 114.996094 179.804688 C 111.019531 181.546875 107.570312 183.894531 104.652344 186.851562 C 101.730469 189.808594 99.417969 193.277344 97.710938 197.257812 C 96 201.242188 95.144531 205.472656 95.144531 209.953125 C 95.144531 214.429688 96 218.664062 97.710938 222.644531 C 99.417969 226.628906 101.730469 230.097656 104.652344 233.050781 C 107.570312 236.007812 111.019531 238.359375 114.996094 240.101562 C 118.972656 241.84375 123.257812 242.710938 127.855469 242.710938 C 132.390625 242.710938 136.648438 241.84375 140.621094 240.101562 C 144.597656 238.359375 148.0625 235.992188 151.015625 233.007812 C 153.964844 230.019531 156.292969 226.550781 158.003906 222.597656 C 159.710938 218.648438 160.566406 214.429688 160.566406 209.953125 C 160.566406 205.472656 159.710938 201.257812 158.003906 197.304688 C 156.292969 193.355469 153.964844 189.882812 151.015625 186.898438 C 148.0625 183.910156 144.597656 181.546875 140.621094 179.804688 C 136.648438 178.0625 132.390625 177.191406 127.855469 177.191406 Z M 180.042969 209.953125 C 180.042969 224.511719 174.945312 236.832031 164.757812 246.914062 C 154.445312 257.117188 142.144531 262.21875 127.855469 262.21875 C 113.441406 262.21875 101.140625 257.117188 90.953125 246.914062 C 80.761719 236.710938 75.667969 224.386719 75.667969 209.953125 C 75.667969 195.515625 80.761719 183.195312 90.953125 172.992188 C 101.140625 162.785156 113.441406 157.683594 127.855469 157.683594 C 142.144531 157.683594 154.445312 162.785156 164.757812 172.992188 C 169.851562 178.09375 173.65625 183.726562 176.175781 189.882812 C 178.691406 196.046875 179.976562 202.734375 180.042969 209.953125 " fill-opacity="1" fill-rule="nonzero"/><path fill="#383838" d="M 247.136719 177.191406 C 242.539062 177.191406 238.253906 178.0625 234.277344 179.804688 C 230.300781 181.546875 226.851562 183.894531 223.933594 186.851562 C 221.011719 189.808594 218.699219 193.277344 216.992188 197.257812 C 215.28125 201.242188 214.429688 205.472656 214.429688 209.953125 C 214.429688 214.429688 215.28125 218.664062 216.992188 222.644531 C 218.699219 226.628906 221.011719 230.097656 223.933594 233.050781 C 226.851562 236.007812 230.300781 238.359375 234.277344 240.101562 C 238.253906 241.84375 242.539062 242.710938 247.136719 242.710938 C 251.671875 242.710938 255.925781 241.84375 259.90625 240.101562 C 263.878906 238.359375 267.34375 235.992188 270.296875 233.007812 C 273.246094 230.019531 275.574219 226.550781 277.28125 222.597656 C 278.988281 218.648438 279.847656 214.429688 279.847656 209.953125 C 279.847656 205.472656 278.988281 201.257812 277.28125 197.304688 C 275.574219 193.355469 273.246094 189.882812 270.296875 186.898438 C 267.34375 183.910156 263.878906 181.546875 259.90625 179.804688 C 255.925781 178.0625 251.671875 177.191406 247.136719 177.191406 Z M 299.324219 209.953125 C 299.324219 224.511719 294.226562 236.832031 284.039062 246.914062 C 273.726562 257.117188 261.425781 262.21875 247.136719 262.21875 C 232.722656 262.21875 220.421875 257.117188 210.238281 246.914062 C 200.046875 236.710938 194.953125 224.386719 194.953125 209.953125 C 194.953125 195.515625 200.046875 183.195312 210.238281 172.992188 C 220.421875 162.785156 232.722656 157.683594 247.136719 157.683594 C 261.425781 157.683594 273.726562 162.785156 284.039062 172.992188 C 289.132812 178.09375 292.941406 183.726562 295.457031 189.882812 C 297.972656 196.046875 299.257812 202.734375 299.324219 209.953125 " fill-opacity="1" fill-rule="nonzero"/><g clip-path="url(#dc42c28e08)"><path fill="#383838" d="M 52.1875 112.976562 C 54.980469 112.976562 57.292969 113.925781 59.128906 115.824219 C 60.960938 117.722656 61.878906 120.039062 61.878906 122.777344 C 61.878906 125.578125 60.960938 127.894531 59.128906 129.730469 C 57.292969 131.566406 54.980469 132.484375 52.1875 132.484375 C 44.480469 132.484375 40.628906 136.339844 40.628906 144.058594 L 40.628906 188.671875 C 40.628906 197.632812 38.578125 204.726562 34.480469 209.953125 C 38.578125 215.179688 40.628906 222.273438 40.628906 231.230469 L 40.628906 275.847656 C 40.628906 283.5625 44.480469 287.421875 52.1875 287.421875 C 54.980469 287.421875 57.292969 288.339844 59.128906 290.175781 C 60.960938 292.007812 61.878906 294.328125 61.878906 297.128906 C 61.878906 299.929688 60.960938 302.265625 59.128906 304.128906 C 57.292969 305.996094 54.980469 306.929688 52.1875 306.929688 C 31.5 306.929688 21.152344 296.566406 21.152344 275.847656 L 21.152344 231.230469 C 21.152344 223.519531 17.332031 219.660156 9.691406 219.660156 C 6.898438 219.660156 4.582031 218.742188 2.746094 216.90625 C 0.914062 215.070312 0 212.753906 0 209.953125 C 0 207.152344 0.914062 204.832031 2.746094 203 C 4.582031 201.164062 6.898438 200.246094 9.691406 200.246094 C 17.332031 200.246094 21.152344 196.386719 21.152344 188.671875 L 21.152344 144.058594 C 21.152344 123.335938 31.5 112.976562 52.1875 112.976562 " fill-opacity="1" fill-rule="nonzero"/></g><g clip-path="url(#a6150bdb73)"><path fill="#383838" d="M 353.839844 144.058594 L 353.839844 188.671875 C 353.839844 196.386719 357.660156 200.246094 365.300781 200.246094 C 368.097656 200.246094 370.410156 201.164062 372.242188 203 C 374.078125 204.832031 374.992188 207.152344 374.992188 209.953125 C 374.992188 212.753906 374.078125 215.070312 372.242188 216.90625 C 370.410156 218.742188 368.097656 219.660156 365.300781 219.660156 C 357.660156 219.660156 353.839844 223.519531 353.839844 231.230469 L 353.839844 275.847656 C 353.839844 296.566406 343.496094 306.929688 322.804688 306.929688 C 320.011719 306.929688 317.695312 305.996094 315.863281 304.128906 C 314.03125 302.265625 313.117188 299.929688 313.117188 297.128906 C 313.117188 294.328125 314.03125 292.007812 315.863281 290.175781 C 317.695312 288.339844 320.011719 287.421875 322.804688 287.421875 C 330.511719 287.421875 334.363281 283.5625 334.363281 275.847656 L 334.363281 231.230469 C 334.363281 222.273438 336.414062 215.179688 340.511719 209.953125 C 336.414062 204.726562 334.363281 197.632812 334.363281 188.671875 L 334.363281 144.058594 C 334.363281 136.339844 330.511719 132.484375 322.804688 132.484375 C 320.011719 132.484375 317.695312 131.566406 315.863281 129.730469 C 314.03125 127.894531 313.117188 125.578125 313.117188 122.777344 C 313.117188 120.039062 314.03125 117.722656 315.863281 115.824219 C 317.695312 113.925781 320.011719 112.976562 322.804688 112.976562 C 343.496094 112.976562 353.839844 123.335938 353.839844 144.058594 " fill-opacity="1" fill-rule="nonzero"/></g><g clip-path="url(#744a6560ca)"><path fill="#383838" d="M 216.664062 120.714844 C 216.664062 122.332031 216.351562 123.839844 215.730469 125.242188 C 215.109375 126.640625 214.289062 127.871094 213.265625 128.929688 C 212.238281 129.984375 211.007812 130.808594 209.582031 131.402344 C 208.152344 131.996094 206.664062 132.289062 205.109375 132.289062 C 202.25 132.289062 199.796875 131.292969 197.746094 129.300781 C 195.695312 127.3125 194.019531 124.867188 192.714844 121.972656 C 191.410156 119.082031 190.460938 116.09375 189.871094 113.015625 C 189.28125 109.933594 188.988281 107.054688 188.988281 104.378906 C 188.988281 93.367188 193.675781 82.230469 203.058594 70.964844 C 204.734375 69.285156 206.632812 68.445312 208.746094 68.445312 C 210.914062 68.445312 212.78125 69.222656 214.335938 70.78125 C 215.886719 72.335938 216.664062 74.203125 216.664062 76.378906 C 216.664062 77.4375 216.445312 78.527344 216.015625 79.644531 C 213.214844 86.492188 211.820312 92.992188 211.820312 99.15625 C 211.820312 105.003906 213.089844 110.667969 215.640625 116.140625 C 216.324219 117.695312 216.664062 119.222656 216.664062 120.714844 Z M 186.007812 120.714844 C 186.007812 122.332031 185.695312 123.839844 185.074219 125.242188 C 184.449219 126.640625 183.628906 127.871094 182.605469 128.929688 C 181.578125 129.984375 180.351562 130.808594 178.921875 131.402344 C 177.492188 131.996094 176.003906 132.289062 174.449219 132.289062 C 171.589844 132.289062 169.140625 131.292969 167.089844 129.300781 C 165.039062 127.3125 163.359375 124.867188 162.054688 121.972656 C 160.75 119.082031 159.804688 116.09375 159.214844 113.015625 C 158.625 109.933594 158.328125 107.054688 158.328125 104.378906 C 158.328125 93.367188 163.019531 82.230469 172.398438 70.964844 C 174.078125 69.285156 175.972656 68.445312 178.085938 68.445312 C 180.257812 68.445312 182.121094 69.222656 183.675781 70.78125 C 185.230469 72.335938 186.007812 74.203125 186.007812 76.378906 C 186.007812 77.4375 185.789062 78.527344 185.351562 79.644531 C 182.558594 86.492188 181.160156 92.992188 181.160156 99.15625 C 181.160156 105.003906 182.433594 110.667969 184.980469 116.140625 C 185.664062 117.695312 186.007812 119.222656 186.007812 120.714844 " fill-opacity="1" fill-rule="nonzero"/></g></svg>