<svg xmlns="http://www.w3.org/2000/svg" xmlns:xlink="http://www.w3.org/1999/xlink" width="750" zoomAndPan="magnify" viewBox="0 0 562.5 149.999998" height="200" preserveAspectRatio="xMidYMid meet" version="1.0"><defs><g/><clipPath id="29a9983eae"><path d="M 8.25 34 L 39 34 L 39 129.035156 L 8.25 129.035156 Z M 8.25 34 " clip-rule="nonzero"/></clipPath><clipPath id="b76a858159"><path d="M 161 34.4375 L 191.246094 34.4375 L 191.246094 129.035156 L 161 129.035156 Z M 161 34.4375 " clip-rule="nonzero"/></clipPath><clipPath id="8fc4e22dd8"><path d="M 85 12.785156 L 114 12.785156 L 114 44 L 85 44 Z M 85 12.785156 " clip-rule="nonzero"/></clipPath></defs><path fill="#ff6824" d="M 70.644531 65.792969 C 68.398438 65.792969 66.308594 66.21875 64.367188 67.066406 C 62.425781 67.917969 60.746094 69.0625 59.320312 70.503906 C 57.894531 71.941406 56.765625 73.632812 55.933594 75.574219 C 55.097656 77.515625 54.679688 79.578125 54.679688 81.761719 C 54.679688 83.945312 55.097656 86.007812 55.933594 87.949219 C 56.765625 89.890625 57.894531 91.582031 59.320312 93.023438 C 60.746094 94.464844 62.425781 95.609375 64.367188 96.457031 C 66.308594 97.308594 68.398438 97.730469 70.644531 97.730469 C 72.855469 97.730469 74.933594 97.308594 76.875 96.457031 C 78.8125 95.609375 80.503906 94.457031 81.945312 93 C 83.382812 91.542969 84.519531 89.855469 85.355469 87.925781 C 86.1875 86 86.605469 83.945312 86.605469 81.761719 C 86.605469 79.578125 86.1875 77.523438 85.355469 75.597656 C 84.519531 73.671875 83.382812 71.980469 81.945312 70.523438 C 80.503906 69.070312 78.8125 67.917969 76.875 67.066406 C 74.933594 66.21875 72.855469 65.792969 70.644531 65.792969 Z M 96.109375 81.761719 C 96.109375 88.859375 93.625 94.867188 88.652344 99.777344 C 83.617188 104.753906 77.617188 107.242188 70.644531 107.242188 C 63.609375 107.242188 57.605469 104.753906 52.636719 99.777344 C 47.664062 94.804688 45.175781 88.800781 45.175781 81.761719 C 45.175781 74.726562 47.664062 68.71875 52.636719 63.746094 C 57.605469 58.769531 63.609375 56.285156 70.644531 56.285156 C 77.617188 56.285156 83.617188 58.769531 88.652344 63.746094 C 91.136719 66.234375 92.996094 68.976562 94.222656 71.980469 C 95.449219 74.984375 96.078125 78.246094 96.109375 81.761719 " fill-opacity="1" fill-rule="nonzero"/><path fill="#ff6824" d="M 128.851562 65.792969 C 126.609375 65.792969 124.515625 66.21875 122.578125 67.066406 C 120.636719 67.917969 118.953125 69.0625 117.53125 70.503906 C 116.105469 71.941406 114.976562 73.632812 114.140625 75.574219 C 113.308594 77.515625 112.890625 79.578125 112.890625 81.761719 C 112.890625 83.945312 113.308594 86.007812 114.140625 87.949219 C 114.976562 89.890625 116.105469 91.582031 117.53125 93.023438 C 118.953125 94.464844 120.636719 95.609375 122.578125 96.457031 C 124.515625 97.308594 126.609375 97.730469 128.851562 97.730469 C 131.066406 97.730469 133.140625 97.308594 135.085938 96.457031 C 137.023438 95.609375 138.714844 94.457031 140.15625 93 C 141.59375 91.542969 142.730469 89.855469 143.5625 87.925781 C 144.398438 86 144.816406 83.945312 144.816406 81.761719 C 144.816406 79.578125 144.398438 77.523438 143.5625 75.597656 C 142.730469 73.671875 141.59375 71.980469 140.15625 70.523438 C 138.714844 69.070312 137.023438 67.917969 135.085938 67.066406 C 133.140625 66.21875 131.066406 65.792969 128.851562 65.792969 Z M 154.320312 81.761719 C 154.320312 88.859375 151.832031 94.867188 146.863281 99.777344 C 141.828125 104.753906 135.824219 107.242188 128.851562 107.242188 C 121.820312 107.242188 115.816406 104.753906 110.84375 99.777344 C 105.871094 94.804688 103.386719 88.800781 103.386719 81.761719 C 103.386719 74.726562 105.871094 68.71875 110.84375 63.746094 C 115.816406 58.769531 121.820312 56.285156 128.851562 56.285156 C 135.824219 56.285156 141.828125 58.769531 146.863281 63.746094 C 149.347656 66.234375 151.203125 68.976562 152.433594 71.980469 C 153.660156 74.984375 154.289062 78.246094 154.320312 81.761719 " fill-opacity="1" fill-rule="nonzero"/><g clip-path="url(#29a9983eae)"><path fill="#ffffff" d="M 33.71875 34.492188 C 35.082031 34.492188 36.210938 34.953125 37.105469 35.878906 C 38 36.804688 38.445312 37.933594 38.445312 39.269531 C 38.445312 40.632812 38 41.761719 37.105469 42.65625 C 36.210938 43.550781 35.082031 44 33.71875 44 C 29.957031 44 28.078125 45.878906 28.078125 49.640625 L 28.078125 71.390625 C 28.078125 75.757812 27.078125 79.214844 25.074219 81.761719 C 27.078125 84.308594 28.078125 87.769531 28.078125 92.136719 L 28.078125 113.882812 C 28.078125 117.644531 29.957031 119.527344 33.71875 119.527344 C 35.082031 119.527344 36.210938 119.972656 37.105469 120.867188 C 38 121.761719 38.445312 122.890625 38.445312 124.257812 C 38.445312 125.621094 38 126.761719 37.105469 127.671875 C 36.210938 128.578125 35.082031 129.035156 33.71875 129.035156 C 23.621094 129.035156 18.574219 123.984375 18.574219 113.882812 L 18.574219 92.136719 C 18.574219 88.375 16.707031 86.492188 12.980469 86.492188 C 11.617188 86.492188 10.484375 86.046875 9.589844 85.152344 C 8.695312 84.257812 8.25 83.128906 8.25 81.761719 C 8.25 80.398438 8.695312 79.265625 9.589844 78.371094 C 10.484375 77.480469 11.617188 77.03125 12.980469 77.03125 C 16.707031 77.03125 18.574219 75.148438 18.574219 71.390625 L 18.574219 49.640625 C 18.574219 39.539062 23.621094 34.492188 33.71875 34.492188 " fill-opacity="1" fill-rule="nonzero"/></g><g clip-path="url(#b76a858159)"><path fill="#ffffff" d="M 180.921875 49.640625 L 180.921875 71.390625 C 180.921875 75.148438 182.789062 77.03125 186.515625 77.03125 C 187.882812 77.03125 189.011719 77.480469 189.90625 78.371094 C 190.800781 79.265625 191.246094 80.398438 191.246094 81.761719 C 191.246094 83.128906 190.800781 84.257812 189.90625 85.152344 C 189.011719 86.046875 187.882812 86.492188 186.515625 86.492188 C 182.789062 86.492188 180.921875 88.375 180.921875 92.136719 L 180.921875 113.882812 C 180.921875 123.984375 175.875 129.035156 165.777344 129.035156 C 164.414062 129.035156 163.285156 128.578125 162.390625 127.671875 C 161.496094 126.761719 161.050781 125.621094 161.050781 124.257812 C 161.050781 122.890625 161.496094 121.761719 162.390625 120.867188 C 163.285156 119.972656 164.414062 119.527344 165.777344 119.527344 C 169.539062 119.527344 171.417969 117.644531 171.417969 113.882812 L 171.417969 92.136719 C 171.417969 87.769531 172.417969 84.308594 174.421875 81.761719 C 172.417969 79.214844 171.417969 75.757812 171.417969 71.390625 L 171.417969 49.640625 C 171.417969 45.878906 169.539062 44 165.777344 44 C 164.414062 44 163.285156 43.550781 162.390625 42.65625 C 161.496094 41.761719 161.050781 40.632812 161.050781 39.269531 C 161.050781 37.933594 161.496094 36.804688 162.390625 35.878906 C 163.285156 34.953125 164.414062 34.492188 165.777344 34.492188 C 175.875 34.492188 180.921875 39.539062 180.921875 49.640625 " fill-opacity="1" fill-rule="nonzero"/></g><g clip-path="url(#8fc4e22dd8)"><path fill="#ffffff" d="M 113.984375 38.261719 C 113.984375 39.050781 113.828125 39.785156 113.527344 40.46875 C 113.222656 41.152344 112.824219 41.75 112.324219 42.265625 C 111.824219 42.78125 111.222656 43.183594 110.527344 43.472656 C 109.828125 43.761719 109.101562 43.90625 108.34375 43.90625 C 106.949219 43.90625 105.75 43.417969 104.75 42.449219 C 103.75 41.480469 102.933594 40.289062 102.292969 38.878906 C 101.660156 37.46875 101.195312 36.011719 100.90625 34.507812 C 100.621094 33.007812 100.476562 31.605469 100.476562 30.300781 C 100.476562 24.933594 102.765625 19.503906 107.34375 14.011719 C 108.160156 13.195312 109.085938 12.785156 110.117188 12.785156 C 111.175781 12.785156 112.085938 13.164062 112.84375 13.921875 C 113.601562 14.679688 113.984375 15.589844 113.984375 16.652344 C 113.984375 17.167969 113.875 17.699219 113.664062 18.242188 C 112.300781 21.582031 111.617188 24.75 111.617188 27.753906 C 111.617188 30.605469 112.238281 33.363281 113.480469 36.035156 C 113.816406 36.792969 113.984375 37.535156 113.984375 38.261719 Z M 99.019531 38.261719 C 99.019531 39.050781 98.867188 39.785156 98.566406 40.46875 C 98.261719 41.152344 97.859375 41.75 97.359375 42.265625 C 96.859375 42.78125 96.261719 43.183594 95.566406 43.472656 C 94.867188 43.761719 94.140625 43.90625 93.382812 43.90625 C 91.988281 43.90625 90.789062 43.417969 89.789062 42.449219 C 88.789062 41.480469 87.96875 40.289062 87.332031 38.878906 C 86.695312 37.46875 86.234375 36.011719 85.945312 34.507812 C 85.660156 33.007812 85.515625 31.605469 85.515625 30.300781 C 85.515625 24.933594 87.800781 19.503906 92.382812 14.011719 C 93.199219 13.195312 94.125 12.785156 95.15625 12.785156 C 96.214844 12.785156 97.125 13.164062 97.882812 13.921875 C 98.640625 14.679688 99.019531 15.589844 99.019531 16.652344 C 99.019531 17.167969 98.914062 17.699219 98.703125 18.242188 C 97.339844 21.582031 96.65625 24.75 96.65625 27.753906 C 96.65625 30.605469 97.277344 33.363281 98.519531 36.035156 C 98.851562 36.792969 99.019531 37.535156 99.019531 38.261719 " fill-opacity="1" fill-rule="nonzero"/></g><g fill="#ff6824" fill-opacity="1"><g transform="translate(205.968034, 107.941004)"><g><path d="M 50.703125 -32.0625 C 50.191406 -31.15625 49.9375 -28.984375 49.9375 -25.546875 L 49.9375 -13.15625 C 49.9375 -9.394531 47.992188 -6.128906 44.109375 -3.359375 C 40.078125 -0.453125 35.144531 1 29.3125 1 C 21.207031 1 14.742188 -1.546875 9.921875 -6.640625 C 5.253906 -11.492188 2.921875 -17.675781 2.921875 -25.1875 C 2.921875 -33.1875 5.289062 -39.851562 10.03125 -45.1875 C 15.34375 -51.1875 22.648438 -54.1875 31.953125 -54.1875 C 38.160156 -54.1875 43.078125 -52.984375 46.703125 -50.578125 L 46.0625 -38.78125 L 45.75 -38.703125 C 44.8125 -40.328125 42.96875 -41.660156 40.21875 -42.703125 C 37.613281 -43.691406 34.875 -44.1875 32 -44.1875 C 29.132812 -44.1875 26.628906 -43.734375 24.484375 -42.828125 C 22.335938 -41.921875 20.519531 -40.628906 19.03125 -38.953125 C 15.882812 -35.503906 14.3125 -30.957031 14.3125 -25.3125 C 14.3125 -20.375 15.695312 -16.414062 18.46875 -13.4375 C 21.238281 -10.476562 24.8125 -9 29.1875 -9 C 34.007812 -9 37.265625 -10.25 38.953125 -12.75 C 39.484375 -13.550781 39.75 -14.457031 39.75 -15.46875 L 39.75 -22.109375 L 34.59375 -22.109375 C 31.8125 -22.109375 30.300781 -21.867188 30.0625 -21.390625 L 29.953125 -21.4375 L 29.59375 -31.875 C 30.332031 -31.65625 33.359375 -31.546875 38.671875 -31.546875 L 43.390625 -31.546875 C 46.316406 -31.546875 48.710938 -31.75 50.578125 -32.15625 Z M 50.703125 -32.0625 "/></g></g></g><g fill="#ff6824" fill-opacity="1"><g transform="translate(260.495348, 107.941004)"><g><path d="M 33.625 -9.59375 C 35.28125 -9.59375 36.425781 -9.753906 37.0625 -10.078125 L 37.234375 -10.03125 L 36.828125 0 L 6.875 0 L 6.875 -53.453125 C 7.59375 -53.398438 8.394531 -53.363281 9.28125 -53.34375 L 12.078125 -53.265625 C 13.941406 -53.210938 15.96875 -53.1875 18.15625 -53.1875 C 24.257812 -53.1875 30.296875 -53.289062 36.265625 -53.5 C 35.972656 -51.15625 35.828125 -48.023438 35.828125 -44.109375 C 35.828125 -43.679688 35.851562 -43.359375 35.90625 -43.140625 L 35.828125 -43.03125 C 34.441406 -43.425781 32.46875 -43.625 29.90625 -43.625 L 17.3125 -43.625 L 17.3125 -33.421875 L 26.796875 -33.421875 C 29.722656 -33.421875 31.476562 -33.503906 32.0625 -33.671875 L 32.1875 -23.796875 C 30.90625 -23.921875 29.253906 -23.984375 27.234375 -23.984375 L 17.3125 -23.984375 L 17.3125 -9.59375 Z M 33.625 -9.59375 "/></g></g></g><g fill="#ff6824" fill-opacity="1"><g transform="translate(301.510761, 107.941004)"><g><path d="M 34.875 -31.109375 C 41.289062 -28.390625 44.5 -23.78125 44.5 -17.28125 C 44.5 -12.101562 42.378906 -7.804688 38.140625 -4.390625 C 33.691406 -0.796875 27.800781 1 20.46875 1 C 13.40625 1 7.726562 -0.640625 3.4375 -3.921875 L 3.28125 -14.59375 L 3.671875 -15.078125 C 6.878906 -10.734375 12.453125 -8.5625 20.390625 -8.5625 C 29.671875 -8.5625 34.3125 -11.640625 34.3125 -17.796875 C 34.3125 -20.003906 32.953125 -21.734375 30.234375 -22.984375 C 27.773438 -24.109375 24.921875 -24.671875 21.671875 -24.671875 C 17.191406 -24.671875 13.753906 -23.910156 11.359375 -22.390625 L 11.109375 -22.671875 L 11.515625 -32.109375 C 14.742188 -32.984375 18.128906 -33.421875 21.671875 -33.421875 L 23.75 -33.421875 C 24.5 -33.421875 25.234375 -33.394531 25.953125 -33.34375 C 27.660156 -34.363281 28.765625 -35.882812 29.265625 -37.90625 C 29.429688 -38.46875 29.515625 -39.035156 29.515625 -39.609375 C 29.515625 -40.179688 29.335938 -40.765625 28.984375 -41.359375 C 28.640625 -41.960938 28.125 -42.488281 27.4375 -42.9375 C 25.914062 -43.976562 24.203125 -44.5 22.296875 -44.5 C 20.390625 -44.5 18.78125 -44.390625 17.46875 -44.171875 C 16.164062 -43.960938 14.898438 -43.660156 13.671875 -43.265625 C 11.035156 -42.378906 9.0625 -41.285156 7.75 -39.984375 L 7.5625 -40.1875 L 7.078125 -50.421875 C 11.367188 -52.929688 16.582031 -54.1875 22.71875 -54.1875 C 27.539062 -54.1875 31.5625 -53.078125 34.78125 -50.859375 C 38.25 -48.460938 39.984375 -45.265625 39.984375 -41.265625 C 39.984375 -39.078125 39.503906 -37.109375 38.546875 -35.359375 C 37.585938 -33.617188 36.363281 -32.203125 34.875 -31.109375 Z M 22.234375 -32.34375 C 22.898438 -32.34375 23.457031 -32.398438 23.90625 -32.515625 Z M 22.234375 -32.34375 "/></g></g></g><g fill="#ff6824" fill-opacity="1"><g transform="translate(349.202182, 107.941004)"><g><path d="M 17.078125 0.234375 C 15.234375 0.078125 12.882812 0 10.03125 0 L 6.875 0 L 6.875 -53.34375 L 8.484375 -53.265625 C 9.597656 -53.210938 10.4375 -53.1875 11 -53.1875 L 12.15625 -53.1875 C 14.5 -53.1875 16.140625 -53.289062 17.078125 -53.5 L 17.078125 -30.90625 L 33.265625 -53.34375 C 34.972656 -53.238281 36.414062 -53.1875 37.59375 -53.1875 L 39.78125 -53.1875 C 42.53125 -53.1875 44.488281 -53.289062 45.65625 -53.5 L 30.234375 -33.34375 L 45.421875 -3.203125 C 46.066406 -1.734375 46.664062 -0.664062 47.21875 0 L 44.78125 0 C 39.15625 0 35.648438 0.101562 34.265625 0.3125 C 33.972656 -1.46875 33.570312 -3.023438 33.0625 -4.359375 L 22.875 -23.796875 L 17.078125 -16.1875 Z M 17.078125 0.234375 "/></g></g></g><g fill="#ffffff" fill-opacity="1"><g transform="translate(396.908221, 107.941004)"><g><path d="M 17.671875 0.234375 C 15.109375 0.078125 12.070312 0 8.5625 0 L 7.28125 0 L 7.28125 -53.375 C 8.925781 -53.25 10.097656 -53.1875 10.796875 -53.1875 L 12.4375 -53.1875 C 14.539062 -53.1875 16.285156 -53.289062 17.671875 -53.5 L 17.671875 -32.1875 L 36.46875 -32.1875 L 36.46875 -53.375 C 38.675781 -53.25 40.828125 -53.1875 42.921875 -53.1875 C 45.015625 -53.1875 46.328125 -53.289062 46.859375 -53.5 L 46.859375 0.234375 C 45.578125 0.078125 43.046875 0 39.265625 0 L 36.46875 0 L 36.46875 -22.59375 L 17.671875 -22.59375 Z M 17.671875 0.234375 "/></g></g></g><g fill="#ffffff" fill-opacity="1"><g transform="translate(451.435534, 107.941004)"><g><path d="M 37.1875 -53.375 C 38.84375 -53.25 40.21875 -53.1875 41.3125 -53.1875 L 44.625 -53.1875 C 45.738281 -53.1875 46.910156 -53.289062 48.140625 -53.5 L 48.140625 -20.4375 C 48.140625 -13.875 46.15625 -8.609375 42.1875 -4.640625 C 38.425781 -0.878906 33.707031 1 28.03125 1 C 21.820312 1 16.796875 -0.613281 12.953125 -3.84375 C 8.660156 -7.46875 6.515625 -12.691406 6.515625 -19.515625 L 6.515625 -53.375 C 8.734375 -53.25 10.820312 -53.1875 12.78125 -53.1875 C 14.738281 -53.1875 16.359375 -53.289062 17.640625 -53.5 L 17.640625 -19 C 17.640625 -15.632812 18.664062 -13.019531 20.71875 -11.15625 C 22.632812 -9.445312 25.03125 -8.59375 27.90625 -8.59375 C 32.175781 -8.59375 35.015625 -10.78125 36.421875 -15.15625 C 36.929688 -16.726562 37.1875 -18.675781 37.1875 -21 Z M 37.1875 -53.375 "/></g></g></g><g fill="#ffffff" fill-opacity="1"><g transform="translate(506.122752, 107.941004)"><g><path d="M 40.484375 -3.890625 C 38.523438 -2.335938 35.984375 -1.132812 32.859375 -0.28125 C 29.742188 0.570312 25.914062 1 21.375 1 C 16.832031 1 12 0.585938 6.875 -0.234375 L 6.875 -52.9375 C 12.050781 -53.769531 16.535156 -54.1875 20.328125 -54.1875 C 24.128906 -54.1875 27.25 -53.820312 29.6875 -53.09375 C 32.125 -52.375 34.117188 -51.40625 35.671875 -50.1875 C 38.703125 -47.8125 40.21875 -44.738281 40.21875 -40.96875 C 40.21875 -37.195312 38.847656 -34.070312 36.109375 -31.59375 C 39.359375 -30.570312 41.878906 -28.648438 43.671875 -25.828125 C 45.296875 -23.296875 46.109375 -20.488281 46.109375 -17.40625 C 46.109375 -14.332031 45.660156 -11.703125 44.765625 -9.515625 C 43.867188 -7.328125 42.441406 -5.453125 40.484375 -3.890625 Z M 17.46875 -33.0625 C 18.59375 -32.875 19.992188 -32.78125 21.671875 -32.78125 C 23.347656 -32.78125 24.726562 -33 25.8125 -33.4375 C 26.894531 -33.882812 27.726562 -34.441406 28.3125 -35.109375 C 29.269531 -36.203125 29.75 -37.722656 29.75 -39.671875 C 29.75 -43.742188 27.347656 -45.78125 22.546875 -45.78125 C 20.523438 -45.78125 18.832031 -45.703125 17.46875 -45.546875 Z M 23.390625 -24.515625 C 21.148438 -24.515625 19.175781 -24.367188 17.46875 -24.078125 L 17.46875 -8.359375 C 19.332031 -7.878906 21.289062 -7.640625 23.34375 -7.640625 C 25.40625 -7.640625 27.210938 -7.882812 28.765625 -8.375 C 30.328125 -8.863281 31.640625 -9.535156 32.703125 -10.390625 C 34.867188 -12.148438 35.953125 -14.390625 35.953125 -17.109375 C 35.953125 -22.046875 31.765625 -24.515625 23.390625 -24.515625 Z M 23.390625 -24.515625 "/></g></g></g></svg>